<svg width="27" height="28" viewBox="0 0 27 28" fill="none" xmlns="http://www.w3.org/2000/svg">
<g clip-path="url(#clip0)">
<path d="M13.5104 -0.000117003C6.05412 -0.00662482 0.00628028 6.25657 4.88593e-06 13.9891C-0.00627051 21.7215 6.03324 27.9934 13.4896 27.9999C20.9449 27.9934 26.9885 21.7313 27 13.9999C27 6.27172 20.9626 0.00639081 13.5104 -0.000117003ZM13.4896 25.6702C7.27455 25.6702 2.2361 20.4451 2.2361 13.9999C2.2361 7.55469 7.27455 2.32963 13.4896 2.32963C19.7025 2.33613 24.7368 7.55688 24.743 13.9999C24.743 20.4451 19.7046 25.6702 13.4896 25.6702Z" fill="url(#paint0_linear)"/>
<path d="M17.1362 13.3173C18.039 12.7896 18.527 11.7331 18.3587 10.6733C18.1497 9.03713 16.269 8.41944 14.7852 8.28945V5.82971H13.3223V8.26779H12.3402V5.82971H10.8773V8.26779H7.93066V9.83902H9.0278C9.51892 9.83902 9.75923 9.99072 9.75923 10.4025V17.1532C9.75923 17.7167 9.48754 17.8901 9.19497 17.8901H8.07695V19.4938H10.9191V21.9861H12.3924V19.4938H13.3745V21.9861H14.8061V19.4938H15.1195C18.1288 19.4938 19.1319 17.966 19.1319 15.8855C19.1079 14.6588 18.2876 13.6034 17.1362 13.3173ZM12.3401 9.93652H13.385C14.1164 9.93652 15.5584 10.0666 15.5584 11.3019C15.6085 12.1081 15.0453 12.8146 14.2731 12.9164H12.3401V9.93652ZM13.9597 17.7383V17.7275H12.3401V14.4767H14.2209C14.6598 14.4767 16.3107 14.6284 16.3107 15.8421C16.3107 17.0557 15.5271 17.7383 13.9597 17.7383Z" fill="url(#paint1_linear)"/>
</g>
<defs>
<linearGradient id="paint0_linear" x1="14.85" y1="-4.40753" x2="16.4881" y2="45.1901" gradientUnits="userSpaceOnUse">
<stop stop-color="#FD749B"/>
<stop offset="1" stop-color="#281AC8"/>
</linearGradient>
<linearGradient id="paint1_linear" x1="14.0914" y1="3.28658" x2="15.4047" y2="31.876" gradientUnits="userSpaceOnUse">
<stop stop-color="#FD749B"/>
<stop offset="1" stop-color="#281AC8"/>
</linearGradient>
<clipPath id="clip0">
<rect width="27" height="28" fill="white"/>
</clipPath>
</defs>
</svg>
