<svg width="12" height="13" viewBox="0 0 12 13" fill="none" xmlns="http://www.w3.org/2000/svg">
<path opacity="0.8" fill-rule="evenodd" clip-rule="evenodd" d="M12 12.2822C12 12.6785 11.7035 13 11.3377 13H8.27981V7.96565H9.83967L10.0734 6.0039H8.27981V4.75106C8.27981 4.18307 8.42559 3.79603 9.17741 3.79603L10.1365 3.79568V2.04072C9.97042 2.017 9.40132 1.96353 8.73907 1.96353C7.35638 1.96353 6.40974 2.87783 6.40974 4.55701V6.0039H4.84596V7.96565H6.40974V13H0.662254C0.296478 13 0 12.6785 0 12.2822V0.717776C0 0.321176 0.296478 0 0.662254 0H11.3377C11.7035 0 12 0.321176 12 0.717776V12.2822Z" fill="white"/>
</svg>
