<svg width="14" height="9" viewBox="0 0 14 9" fill="none" xmlns="http://www.w3.org/2000/svg">
<path opacity="0.8" fill-rule="evenodd" clip-rule="evenodd" d="M4.44671 5.3911V3.6089H8.71717C9.0145 5.76541 8.11731 9 4.44671 9C1.99108 9 0 6.98508 0 4.49982C0 2.01456 1.99108 0 4.44671 0C5.59889 0 6.64873 0.443358 7.4387 1.17096C6.82677 1.75594 6.63048 1.97911 6.46379 2.16861C6.37702 2.26727 6.29826 2.3568 6.17307 2.48351C5.71616 2.10113 5.21795 1.82671 4.44671 1.82671C2.98783 1.82671 1.84918 3.0236 1.84918 4.49982C1.84918 5.9764 2.98783 7.17329 4.44671 7.17329C5.88824 7.17329 6.47387 6.54418 6.85064 5.38864C6.15503 5.38864 4.44671 5.3911 4.44671 5.3911ZM12.4592 2.13863V3.69792H14V4.81175H12.4592V6.4159H11.3588V4.81175H9.7736V3.69792H11.3588V2.13863H12.4592Z" fill="white"/>
</svg>
