<svg width="12" height="13" viewBox="0 0 12 13" fill="none" xmlns="http://www.w3.org/2000/svg">
<path opacity="0.8" fill-rule="evenodd" clip-rule="evenodd" d="M10.5736 0H1.4264C0.638573 0 0 0.690014 0 1.54172V11.4583C0 12.3096 0.638573 13 1.4264 13H10.5736C11.3614 13 12 12.3096 12 11.4583V1.54172C12 0.690014 11.3614 0 10.5736 0ZM8.62515 2.03104C8.62515 1.80694 8.79306 1.62504 8.99992 1.62504H10.1249C10.3321 1.62504 10.5 1.80694 10.5 2.03104V3.25009C10.5 3.47418 10.3321 3.65608 10.1249 3.65608H8.99992C8.79306 3.65608 8.62515 3.47418 8.62515 3.25009V2.03104ZM6.01391 4.02095C7.28844 4.02095 8.32174 5.13788 8.32174 6.51507C8.32174 7.89262 7.28844 9.00919 6.01391 9.00919C4.73971 9.00919 3.70641 7.89262 3.70641 6.51507C3.70641 5.13788 4.73971 4.02095 6.01391 4.02095ZM10.8751 11.375C10.8751 11.5991 10.7071 11.7813 10.5 11.7813H1.50004C1.29286 11.7813 1.12495 11.5991 1.12495 11.375V5.28113H2.62499C2.42959 5.58571 2.36347 6.15411 2.36347 6.51507C2.36347 8.69042 4.00131 10.4605 6.01391 10.4605C8.02684 10.4605 9.66467 8.69042 9.66467 6.51507C9.66467 6.15411 9.61722 5.59458 9.37501 5.28113H10.8751V11.375Z" fill="white"/>
</svg>
