<svg width="13" height="11" viewBox="0 0 13 11" fill="none" xmlns="http://www.w3.org/2000/svg">
<path opacity="0.8" fill-rule="evenodd" clip-rule="evenodd" d="M12.6414 0.203358C12.1257 0.521259 11.5557 0.752459 10.9465 0.876165C10.4613 0.336932 9.76779 0 9 0C7.52829 0 6.33391 1.24341 6.33391 2.77687C6.33391 2.99468 6.35682 3.20579 6.40264 3.40915C4.18605 3.2932 2.2211 2.189 0.904894 0.506809C0.675113 0.918458 0.543908 1.39601 0.543908 1.90458C0.543908 2.86745 1.01458 3.71754 1.73065 4.21553C1.294 4.20214 0.881985 4.07597 0.521694 3.86944V3.90327C0.521694 5.24924 1.44117 6.37211 2.66227 6.62622C2.43874 6.69142 2.20271 6.7242 1.95939 6.7242C1.78757 6.7242 1.61992 6.70728 1.45748 6.67486C1.79695 7.77764 2.78133 8.58085 3.94863 8.60235C3.0361 9.34741 1.88546 9.79148 0.636237 9.79148C0.421034 9.79148 0.208261 9.7788 0 9.75342C1.18015 10.5401 2.58278 11 4.08851 11C8.99479 11 11.6768 6.76931 11.6768 3.09936C11.6768 2.97847 11.6748 2.85793 11.6703 2.73951C12.1913 2.34795 12.6439 1.85912 13 1.30227C12.5224 1.52289 12.008 1.67233 11.4686 1.73929C12.0194 1.39601 12.4422 0.851847 12.6414 0.203358Z" fill="white"/>
</svg>
